# xmcd
#
# Track frame offsets:
#	150
#	16533
#	31398
#	47121
#	60785
#	75835
#	90861
#	108942
#	125545
#	138744
#	157521
#	175950
#	197337
#	213983
#	230582
#	247735
#	265107
#	282327
#	299565
#	316560
#	334091
#
# Disc length: 4671 seconds
#
# Revision: 1
# Processed by: cddbd v1.5.1PL2 Copyright (c) Steve Scherf et al.
# Submitted via: audiograbber 1.83.01
#
DISCID=04123d15
DTITLE=Various Artist - ERG NCT 144
DYEAR=2006
DGENRE=Country
TTITLE0=Rascal Flatts - Me And My Gang
TTITLE1=Toby Keith - A Little Too Late
TTITLE2=Josh Turner - Would You Go With Me
TTITLE3=Darryl Worley - Nothin' But A Love Thang
TTITLE4=Trace Adkins - Swing
TTITLE5=Rockie Lynne - Do We Still
TTITLE6=Chris Cagel - Anywhere But Here
TTITLE7=Jeff Bates - One Second Chance
TTITLE8=Emerson Drive - One Good Man
TTITLE9=Terri Clark - Slow News Days
TTITLE10=Charlie Major - You'd Better Go
TTITLE11=Aaron Lines - 20 Years Late
TTITLE12=George Canyon - Somebody Wrote Love
TTITLE13=SheDaisy - In Terms Of Love
TTITLE14=Trent Tomlinson - One Wing In The Fire
TTITLE15=Gary Nichols - Unbroken Ground
TTITLE16=Miranda Lambert - New Strings
TTITLE17=Adam Gregory - Get It On
TTITLE18=Cross Canadian Ragweed - This Time Around
TTITLE19=Van Zant - Things I Miss The Most
TTITLE20=Rio Grand - Kill Me Now
EXTD=
EXTT0=
EXTT1=
EXTT2=
EXTT3=
EXTT4=
EXTT5=
EXTT6=
EXTT7=
EXTT8=
EXTT9=
EXTT10=
EXTT11=
EXTT12=
EXTT13=
EXTT14=
EXTT15=
EXTT16=
EXTT17=
EXTT18=
EXTT19=
EXTT20=
PLAYORDER=
